<?xml version="1.0" standalone="no"?><!DOCTYPE svg PUBLIC "-//W3C//DTD SVG 1.1//EN" "http://www.w3.org/Graphics/SVG/1.1/DTD/svg11.dtd"><svg class="icon" width="80px" height="80.00px" viewBox="0 0 1024 1024" version="1.1" xmlns="http://www.w3.org/2000/svg"><path d="M164.571429 826.514286c-3.657143 3.657143-5.485714 7.314286-5.485715 12.8 0 5.485714 1.828571 9.142857 5.485715 12.8 3.657143 3.657143 7.314286 5.485714 12.8 5.485714 5.485714 0 9.142857-1.828571 12.8-5.485714 3.657143-3.657143 5.485714-7.314286 5.485714-12.8 0-5.485714-1.828571-9.142857-5.485714-12.8-7.314286-7.314286-20.114286-7.314286-25.6 0zM702.171429 746.057143c3.657143 3.657143 7.314286 5.485714 12.8 5.485714 5.485714 0 9.142857-1.828571 12.8-5.485714 7.314286-7.314286 7.314286-18.285714 0-25.6-40.228571-40.228571-89.6-69.485714-140.8-85.942857 91.428571-36.571429 157.257143-128 157.257142-232.228572 0-138.971429-113.371429-250.514286-250.514285-250.514285S241.371429 263.314286 241.371429 400.457143c0 71.314286 31.085714 138.971429 84.114285 186.514286 7.314286 7.314286 18.285714 5.485714 25.6-1.828572 7.314286-7.314286 5.485714-18.285714-1.828571-25.6-45.714286-40.228571-71.314286-98.742857-71.314286-159.085714 0-118.857143 96.914286-213.942857 213.942857-213.942857s213.942857 96.914286 213.942857 213.942857-96.914286 213.942857-213.942857 213.942857h-21.942857c-113.371429 7.314286-215.771429 65.828571-279.771428 160.914286-5.485714 9.142857-3.657143 20.114286 5.485714 25.6 3.657143 1.828571 7.314286 3.657143 10.971428 3.657143 5.485714 0 10.971429-3.657143 14.628572-7.314286 58.514286-87.771429 155.428571-140.8 259.657143-144.457143 84.114286 1.828571 160.914286 34.742857 221.257143 93.257143z" fill="#f9bf53" /><path d="M888.685714 682.057143c-7.314286-7.314286-18.285714-7.314286-25.6 0l-155.428571 155.428571-80.457143-80.457143c-7.314286-7.314286-18.285714-7.314286-25.6 0s-7.314286 18.285714 0 25.6l80.457143 80.457143c7.314286 7.314286 16.457143 10.971429 25.6 10.971429 9.142857 0 18.285714-3.657143 25.6-10.971429l155.428571-155.428571c7.314286-7.314286 7.314286-20.114286 0-25.6z" fill="#f9bf53" /></svg>