<?xml version="1.0" standalone="no"?><!DOCTYPE svg PUBLIC "-//W3C//DTD SVG 1.1//EN" "http://www.w3.org/Graphics/SVG/1.1/DTD/svg11.dtd"><svg class="icon" width="80px" height="80.00px" viewBox="0 0 1024 1024" version="1.1" xmlns="http://www.w3.org/2000/svg"><path d="M507.923148 470.50084c32.538067 0 63.126736-12.642948 86.088704-35.619242 47.428196-47.343261 47.428196-124.438127 0-171.778318-22.961968-22.961968-53.550637-35.634592-86.088704-35.634592-32.494065 0-63.085804 12.672624-86.030375 35.634592-47.486524 47.341215-47.486524 124.435057 0 171.778318C444.837344 457.856869 475.315496 470.50084 507.923148 470.50084L507.923148 470.50084zM452.467115 293.76358c14.849196-14.790868 34.514071-22.903639 55.400774-22.903639 20.941961 0 40.619116 8.112772 55.32505 22.903639 30.492478 30.43415 30.492478 80.135108 0 110.569258-14.706957 14.691607-34.383088 22.859637-55.269791 22.859637-20.941961 0-40.606837-8.16803-55.456033-22.859637C421.992033 373.770775 421.992033 324.19773 452.467115 293.76358L452.467115 293.76358zM957.346951 910.107043 846.393953 686.937265c-3.622504-7.416923-11.040451-11.933797-19.178805-11.933797L722.511481 675.003468c-11.848862 0-21.468964 9.689686-21.468964 21.623483 0 11.951193 9.620102 21.666462 21.468964 21.666462l91.40171 0 89.469708 179.879833L121.640408 898.173247l89.484034-179.879833 58.168818 0c11.848862 0 21.454638-9.716292 21.454638-21.666462 0-11.933797-9.605775-21.623483-21.454638-21.623483l-71.425749 0c-8.112772 0-15.541975 4.51585-19.138896 11.933797L67.647703 910.107043c-3.294023 6.722098-2.997264 14.790868 0.939395 21.058618 3.879354 6.334265 10.824533 10.330276 18.256806 10.330276l851.251587 0c7.516184 0 14.366196-3.852748 18.215874-10.330276C960.27463 924.769998 960.672696 916.828119 957.346951 910.107043L957.346951 910.107043zM413.549757 677.915797c32.992415 64.872496 73.160253 74.591859 94.102215 74.591859 36.402071 0 69.705572-26.511817 93.904717-74.67884 12.120039-24.082488 34.81083-56.166207 61.095473-93.191472 54.857399-77.321016 123.05871-173.413562 123.05871-240.705154 0-153.778362-125.276215-278.824333-279.394315-278.824333-154.059771 0-279.32166 125.045971-279.32166 278.824333 0 67.617004 68.073398 162.187893 122.860189 238.175541C377.037169 619.831914 400.621307 652.426263 413.549757 677.915797L413.549757 677.915797zM506.316557 107.805308c63.11548 0 122.432447 24.579815 167.163207 69.208245 44.742017 44.599777 69.293179 103.876836 69.293179 166.8204 0 53.309136-53.564963 128.302131-105.325837 200.848401-29.610388 41.4746-57.685817 80.719416-74.323752 113.953332-16.254196 32.407084-36.487006 50.949392-55.470359 50.949392-19.281135 0-39.045271-18.113543-55.796794-51.120284-19.961634-39.23049-51.446719-82.84994-81.866542-124.921127-51.434439-71.225181-100.099812-138.489144-100.099812-189.70869C269.889847 213.727733 375.928928 107.805308 506.316557 107.805308L506.316557 107.805308z" fill="#f9bf53" /></svg>